<svg xmlns="http://www.w3.org/2000/svg" viewBox="0 0 256 256" role="img" aria-label="PasteboardPro">
  <defs>
    <linearGradient id="surface" x1="0" y1="0" x2="1" y2="1">
      <stop offset="0" stop-color="#8f84ff"/>
      <stop offset="0.52" stop-color="#6255e8"/>
      <stop offset="1" stop-color="#332a9e"/>
    </linearGradient>
    <linearGradient id="paper" x1="0" y1="0" x2="0" y2="1">
      <stop offset="0" stop-color="#ffffff" stop-opacity="0.96"/>
      <stop offset="1" stop-color="#dcd8ff" stop-opacity="0.86"/>
    </linearGradient>
  </defs>
  <rect width="256" height="256" rx="58" fill="url(#surface)"/>
  <path d="M76 58h104a22 22 0 0 1 22 22v118a22 22 0 0 1-22 22H76a22 22 0 0 1-22-22V80a22 22 0 0 1 22-22Z" fill="url(#paper)"/>
  <rect x="91" y="38" width="74" height="42" rx="18" fill="#fff"/>
  <rect x="82" y="105" width="92" height="12" rx="6" fill="#6157c9" opacity="0.88"/>
  <rect x="82" y="137" width="70" height="12" rx="6" fill="#6157c9" opacity="0.58"/>
  <rect x="82" y="169" width="82" height="12" rx="6" fill="#6157c9" opacity="0.36"/>
</svg>
